<?xml version="1.0" standalone="no"?>
<!DOCTYPE svg PUBLIC "-//W3C//DTD SVG 20010904//EN"
 "http://www.w3.org/TR/2001/REC-SVG-20010904/DTD/svg10.dtd">
<svg version="1.0" xmlns="http://www.w3.org/2000/svg"
 width="1024.000000pt" height="1024.000000pt" viewBox="0 0 1024.000000 1024.000000"
 preserveAspectRatio="xMidYMid meet">

<g transform="translate(0.000000,1024.000000) scale(0.100000,-0.100000)"
fill="#000000" stroke="none">
<path d="M2675 9186 c-188 -44 -287 -101 -490 -281 -194 -173 -235 -185 -447
-130 -118 31 -161 38 -243 39 -272 1 -491 -127 -599 -349 -57 -118 -71 -189
-70 -365 1 -231 27 -349 151 -690 92 -251 112 -315 158 -500 43 -170 70 -236
141 -346 126 -193 305 -293 520 -294 l80 0 -32 -67 c-48 -103 -83 -216 -105
-341 -18 -110 -19 -176 -19 -1903 0 -1181 4 -1823 10 -1887 29 -263 141 -515
311 -697 33 -34 59 -65 59 -67 0 -3 -145 -8 -322 -12 -178 -3 -345 -8 -373
-10 -27 -2 -97 -7 -155 -10 -58 -4 -121 -9 -140 -11 -109 -13 -142 -18 -210
-31 -84 -17 -123 -45 -97 -71 48 -49 351 -85 977 -118 151 -8 313 -17 360 -20
47 -3 159 -10 250 -15 91 -6 235 -17 320 -25 135 -13 458 -15 2445 -12 2039 3
2306 5 2435 19 136 16 237 22 738 48 804 42 1102 81 1102 144 0 57 -392 102
-991 114 l-342 7 63 65 c156 161 275 404 314 645 15 91 17 269 14 1955 l-4
1855 -26 112 c-25 104 -84 273 -113 318 -12 20 -10 20 94 20 132 0 210 24 320
99 166 113 250 257 337 576 30 113 85 286 121 385 111 304 133 375 158 513 33
174 34 361 5 478 -44 173 -140 309 -279 391 -90 54 -162 78 -280 93 -112 14
-160 9 -340 -36 -206 -53 -257 -38 -434 119 -144 129 -197 168 -299 220 -124
63 -206 82 -358 82 -142 -1 -227 -20 -355 -80 -229 -109 -457 -335 -667 -660
-246 -381 -447 -844 -527 -1215 l-27 -125 -701 -3 -701 -2 -27 112 c-115 481
-368 1020 -666 1421 -214 287 -433 457 -681 527 -95 27 -279 35 -363 16z m226
-300 c202 -36 412 -206 648 -526 151 -204 303 -499 420 -814 49 -132 114 -351
109 -367 -2 -4 -36 36 -76 90 -40 54 -120 151 -178 217 -134 151 -157 184
-214 313 -109 245 -180 358 -313 498 -108 113 -155 143 -236 150 -131 12 -219
-61 -289 -242 -37 -94 -55 -158 -122 -440 -62 -258 -98 -373 -155 -491 -115
-239 -308 -446 -527 -564 -99 -53 -152 -70 -218 -71 -131 -2 -175 59 -289 395
-32 95 -105 289 -161 431 -112 284 -143 390 -161 547 -33 293 88 477 325 495
75 6 196 -14 244 -41 23 -12 22 -14 -56 -88 -90 -86 -271 -238 -284 -238 -4 0
-8 -4 -8 -9 0 -13 95 7 210 45 161 53 458 215 658 357 48 34 132 100 187 147
188 161 239 193 336 209 73 12 65 12 150 -3z m4659 -29 c59 -28 73 -38 258
-194 140 -117 242 -188 430 -297 143 -83 280 -150 377 -185 72 -26 235 -62
235 -52 0 4 -15 15 -32 25 -62 36 -338 277 -338 296 0 20 157 60 237 60 155 0
282 -84 334 -219 31 -80 36 -210 14 -341 -21 -126 -67 -270 -170 -530 -42
-107 -107 -283 -144 -390 -81 -234 -112 -300 -158 -345 -67 -65 -175 -62 -315
8 -184 92 -350 242 -473 426 -115 173 -154 281 -255 696 -89 366 -126 469
-202 551 -54 59 -107 84 -178 84 -80 0 -148 -35 -234 -123 -130 -131 -233
-292 -336 -526 -58 -132 -80 -165 -215 -316 -59 -66 -141 -164 -181 -219 -41
-54 -74 -95 -74 -90 0 24 53 212 89 315 211 612 602 1174 930 1340 103 52 136
59 246 56 83 -3 109 -8 155 -30z m-4387 -952 c196 -68 456 -314 579 -550 37
-70 88 -210 88 -239 0 -26 -14 -18 -28 14 -26 59 -165 266 -239 357 -129 159
-275 282 -480 403 -40 23 -73 45 -73 47 0 10 84 -8 153 -32z m4007 28 c0 -5
-43 -35 -96 -67 -203 -125 -344 -251 -483 -434 -64 -85 -185 -277 -196 -312
-8 -25 -25 -26 -25 -2 1 36 57 181 99 254 157 274 413 503 619 552 68 17 82
18 82 9z m85 -1135 c246 -58 440 -163 591 -320 129 -135 211 -271 273 -456 56
-167 64 -248 65 -632 l1 -345 -505 -3 c-544 -3 -656 3 -817 43 -116 29 -269
103 -368 177 -87 65 -314 292 -385 384 -59 78 -58 68 10 -93 161 -379 436
-620 823 -718 175 -44 232 -48 747 -54 l495 -6 3 -1240 c3 -1331 0 -1440 -44
-1592 -51 -176 -168 -350 -313 -466 -85 -67 -242 -147 -341 -172 -175 -45
-102 -44 -2435 -42 l-2210 3 -90 21 c-199 47 -339 120 -465 243 -128 125 -207
261 -257 445 l-28 100 -3 1353 -3 1352 440 0 c560 0 716 15 925 87 177 61 288
127 411 245 154 146 240 288 343 568 3 8 -23 -21 -58 -65 -104 -132 -314 -334
-420 -403 -51 -34 -97 -62 -102 -62 -4 0 -8 376 -8 835 l0 835 1828 -3 c1647
-3 1834 -5 1897 -19z m-4345 -877 l0 -868 -31 -7 c-17 -3 -130 -6 -250 -6
l-219 0 0 763 0 762 83 52 c101 64 217 117 322 148 44 13 83 24 88 24 4 1 7
-390 7 -868z"/>
<path d="M6758 6415 c-74 -28 -129 -86 -157 -165 -15 -43 -16 -596 -1 -650 13
-47 72 -115 124 -143 39 -21 54 -22 330 -25 192 -2 305 0 335 8 73 18 142 69
176 131 l30 54 0 295 c-1 284 -2 297 -23 345 -27 60 -72 109 -127 138 -38 21
-53 22 -345 24 -239 2 -313 -1 -342 -12z m561 -181 c85 -54 125 -122 125 -210
-1 -202 -244 -309 -396 -174 -92 80 -112 200 -51 299 65 104 225 146 322 85z"/>
<path d="M5000 5304 c-349 -40 -615 -163 -823 -381 -126 -133 -179 -206 -250
-348 -110 -223 -153 -430 -144 -699 6 -172 27 -280 84 -431 198 -526 677 -865
1222 -865 640 0 1167 450 1298 1107 26 134 24 396 -5 531 -91 420 -340 760
-687 935 -156 79 -227 104 -372 131 -85 16 -263 27 -323 20z m437 -335 c421
-148 679 -467 734 -907 28 -226 -38 -496 -169 -689 -63 -93 -172 -183 -172
-143 0 6 24 51 54 100 30 50 69 127 86 173 55 142 65 203 64 397 0 161 -3 182
-28 264 -72 238 -204 415 -405 544 -62 40 -190 97 -293 131 -36 12 -78 33 -92
46 -36 33 -35 77 2 105 35 28 95 23 219 -21z m-711 -195 c79 -38 102 -151 44
-217 -40 -46 -103 -64 -152 -44 -99 41 -130 162 -60 232 47 48 107 58 168 29z
m931 -209 c131 -58 217 -189 216 -330 0 -102 -31 -175 -104 -248 -83 -83 -130
-101 -254 -102 -89 0 -106 3 -157 28 -76 37 -159 128 -188 204 -18 48 -21 73
-18 143 5 94 30 158 89 225 97 110 274 144 416 80z m-19 -1372 c84 -53 80
-193 -7 -238 -66 -34 -155 -11 -191 48 -35 56 -22 135 29 181 40 36 120 41
169 9z"/>
<path d="M6280 4947 c0 -4 17 -34 38 -65 138 -205 228 -416 275 -647 18 -89
22 -143 21 -280 0 -294 -55 -509 -201 -785 -76 -145 -150 -246 -268 -365 -243
-246 -510 -383 -840 -430 -234 -34 -512 -6 -720 72 -241 90 -454 240 -629 445
-179 207 -298 448 -358 723 -25 115 -36 435 -19 557 26 186 88 374 195 593
l54 110 -70 -75 c-164 -176 -300 -436 -357 -680 -84 -360 -38 -724 133 -1071
304 -612 940 -993 1611 -966 458 19 858 196 1165 513 206 213 339 435 424 703
56 177 70 271 70 471 0 360 -90 642 -294 925 -58 80 -229 267 -230 252z"/>
<path d="M7955 4730 c-1 -3 -6 -84 -9 -180 -4 -96 -9 -213 -11 -260 -3 -47 -9
-184 -15 -305 -5 -121 -12 -256 -15 -300 -3 -44 -7 -138 -10 -210 -3 -71 -7
-182 -10 -245 -3 -63 -12 -277 -20 -475 -24 -560 -36 -642 -117 -783 -65 -114
-196 -231 -316 -282 -141 -60 -248 -71 -868 -94 -225 -9 -458 -18 -519 -21
-60 -3 -247 -9 -415 -15 -168 -5 -361 -12 -430 -15 -69 -3 -213 -7 -320 -10
-107 -3 -253 -7 -325 -10 -71 -2 -206 -7 -300 -10 -93 -3 -271 -10 -395 -15
-124 -5 -342 -14 -485 -20 -456 -18 -675 -32 -675 -45 0 -18 72 -23 550 -40
351 -13 737 -15 2205 -13 1962 4 1808 -1 2005 64 280 93 492 320 584 624 54
183 59 234 52 605 -7 370 -23 953 -31 1160 -13 333 -25 661 -27 772 l-3 121
-38 4 c-21 2 -40 1 -42 -2z"/>
</g>
</svg>
